<svg id="js" width="100" viewBox="0 0 289 458.6">
  <defs>
    <filter id="goo" height="300%" y="-100%">
      <feGaussianBlur in="SourceGraphic" stdDeviation="4" result="blur" />
      <feColorMatrix in="blur" mode="matrix" values="1 0 0 0 0  0 1 0 0 0  0 0 1 0 0  0 0 0 30 -6"/>
    </filter>
  </defs>
  <path d="M144.1 404.9L29.9 358.7 12.5 80.2h264l-18.1 278.5-114.3 46.2" class="st0 outer"></path>
  <path d="M75.4 144.2h138.2l-9.2 168-61.2 28.6-58.3-28.4-1.3-21.2" class="st1 inner"></path>
  <g filter="url(#goo)" class="spark">
    <path d="M144 409.9v48.7" class="st2"></path>
    <path d="M144 409.9h48.7" class="st2"></path>
    <path d="M144 409.9v-48.6" class="st2"></path>
    <path d="M144 409.9H95.3" class="st2"></path>
    <path d="M144 409.9l34.4 34.5" class="st2"></path>
    <path d="M144 409.9l34.4-34.4" class="st2"></path>
    <path d="M144 409.9l-34.4-34.4" class="st2"></path>
    <path d="M144 409.9l-34.4 34.5" class="st2"></path>
  </g>
  <g class="top">
    <path d="M129.7 0v52.7H81.5" class="st3"></path>
    <path d="M207.5 10.3H159v3.6l38.4 35.5V53h-46.9" class="st3"></path>
  </g>
</svg>
