<?xml version="1.0" encoding="utf-8"?>
<!-- Generator: Adobe Illustrator 19.0.0, SVG Export Plug-In . SVG Version: 6.00 Build 0)  -->
<svg version="1.1" id="Layer_1" xmlns="http://www.w3.org/2000/svg" xmlns:xlink="http://www.w3.org/1999/xlink" x="0px" y="0px"
	 viewBox="-203 379.4 434.1 434.1" style="enable-background:new -203 379.4 434.1 434.1;" xml:space="preserve">
<style type="text/css">
	.st0{fill:#2470E0;stroke:#0C61C6;stroke-width:25;stroke-linecap:round;stroke-linejoin:round;stroke-miterlimit:10;}
	.st1{fill:none;stroke:#FFFFFF;stroke-width:25;stroke-linecap:round;stroke-linejoin:round;stroke-miterlimit:10;}
	.st2{fill:#8ACF17;stroke:#63A814;stroke-width:25;stroke-linecap:round;stroke-linejoin:round;stroke-miterlimit:10;}
	.st3{fill:#FF7C33;stroke:#FC490B;stroke-width:25;stroke-linecap:round;stroke-linejoin:round;stroke-miterlimit:10;}
	.st4{fill:none;stroke:#FFFFFF;stroke-width:8;stroke-linejoin:round;stroke-miterlimit:10;}
	.st5{fill:#FC490B;}
	.st6{fill:#FFFFFF;}
	.st7{fill:none;stroke:#FC490B;stroke-miterlimit:10;}
	.st8{fill:none;stroke:#000000;stroke-width:25;stroke-linecap:round;stroke-linejoin:round;stroke-miterlimit:10;}
	.st9{fill:#FC490B;stroke:#FC490B;stroke-width:25;stroke-linecap:round;stroke-linejoin:round;stroke-miterlimit:10;}
	.st10{fill:none;stroke:#FFFFFF;stroke-width:25;stroke-linejoin:round;stroke-miterlimit:10;stroke-dasharray:670;}
	.st11{fill:#0C61C6;stroke:#0C61C6;stroke-width:25;stroke-linecap:round;stroke-linejoin:round;stroke-miterlimit:10;}
	.st12{fill:#2470E0;stroke:#2470E0;stroke-width:25;stroke-linecap:round;stroke-linejoin:round;stroke-miterlimit:10;}
	.st13{fill:none;stroke:#000000;stroke-width:19;stroke-linejoin:round;stroke-miterlimit:10;}
	.st14{fill:none;stroke:#000000;stroke-width:19;stroke-miterlimit:2;}
	.st15{opacity:0.81;}
	.st16{fill:#CF649A;}
</style>
<g>
	<polyline class="st0" points="-1017.4,-635 -1131.6,-681.2 -1149,-959.7 -885,-959.7 -903.1,-681.2 -1017.4,-635 	"/>
	<polyline class="st1" points="-1097.3,-895.4 -938.5,-895.4 -1091.5,-810.8 -943,-810.8 -948.3,-727.5 -1017.9,-699.2 
		-1085.8,-727.3 -1087.1,-746.5 	"/>
</g>
<image style="overflow:visible;" width="1024" height="600" xlink:href="html5-css-js.png"  transform="matrix(1 0 0 1 -4085 -1410)">
</image>
<polyline class="st2" points="-1400.5,-635 -1514.7,-681.2 -1532.1,-959.7 -1268.1,-959.7 -1286.2,-681.2 -1400.5,-635 "/>
<polyline class="st1" points="-1469.2,-895.6 -1331,-895.6 -1340.2,-727.6 -1401.3,-699 -1459.7,-727.4 -1461,-748.7 "/>
<polyline class="st1" points="-1916.2,639 -1757.2,639 -1767.8,807 -1838.2,835.6 -1905.3,807.2 -1906.8,786 "/>
<g>
	<polyline class="st3" points="-634,-635 -748.2,-681.2 -765.6,-959.7 -501.6,-959.7 -519.7,-681.2 -634,-635 	"/>
	<polyline class="st1" points="-554,-895.3 -713.3,-895.3 -708,-810.6 -559.6,-810.7 -564.9,-727.3 -633.8,-699.3 -702.8,-727.3 
		-705.3,-768.3 	"/>
</g>
<g>
	<line class="st4" x1="-634.1" y1="-635" x2="-634.1" y2="-586.3"/>
	<line class="st4" x1="-634.1" y1="-635" x2="-585.4" y2="-635"/>
	<line class="st4" x1="-634.1" y1="-635" x2="-634.1" y2="-683.6"/>
	<line class="st4" x1="-634.1" y1="-635" x2="-682.8" y2="-635"/>
	<line class="st4" x1="-634.1" y1="-635" x2="-599.7" y2="-600.5"/>
	<line class="st4" x1="-634.1" y1="-635" x2="-599.7" y2="-669.4"/>
	<line class="st4" x1="-634.1" y1="-635" x2="-668.5" y2="-669.4"/>
	<line class="st4" x1="-634.1" y1="-635" x2="-668.5" y2="-600.5"/>
</g>
<g>
	<line class="st4" x1="-1016.6" y1="-635" x2="-1016.6" y2="-586.3"/>
	<line class="st4" x1="-1016.6" y1="-635" x2="-967.9" y2="-635"/>
	<line class="st4" x1="-1016.6" y1="-635" x2="-1016.6" y2="-683.6"/>
	<line class="st4" x1="-1016.6" y1="-635" x2="-1065.3" y2="-635"/>
	<line class="st4" x1="-1016.6" y1="-635" x2="-982.2" y2="-600.5"/>
	<line class="st4" x1="-1016.6" y1="-635" x2="-982.2" y2="-669.4"/>
	<line class="st4" x1="-1016.6" y1="-635" x2="-1051" y2="-669.4"/>
	<line class="st4" x1="-1016.6" y1="-635" x2="-1051" y2="-600.5"/>
</g>
<g>
	<line class="st4" x1="-1399.1" y1="-635" x2="-1399.1" y2="-586.3"/>
	<line class="st4" x1="-1399.1" y1="-635" x2="-1350.4" y2="-635"/>
	<line class="st4" x1="-1399.1" y1="-635" x2="-1399.1" y2="-683.6"/>
	<line class="st4" x1="-1399.1" y1="-635" x2="-1447.8" y2="-635"/>
	<line class="st4" x1="-1399.1" y1="-635" x2="-1364.7" y2="-600.5"/>
	<line class="st4" x1="-1399.1" y1="-635" x2="-1364.7" y2="-669.4"/>
	<line class="st4" x1="-1399.1" y1="-635" x2="-1433.5" y2="-669.4"/>
	<line class="st4" x1="-1399.1" y1="-635" x2="-1433.5" y2="-600.5"/>
</g>
<polyline class="st3" points="-1836.9,299.3 -1951.1,253.1 -1968.5,-25.4 -1704.5,-25.4 -1722.6,253.1 -1836.9,299.3 "/>
<path class="st5" d="M-378.7,773.2l28.2,360.5c0.4,5.4,4.1,10,9.3,11.7l148.3,47c2.6,0.8,5.4,0.8,8.1,0l148.3-47
	c5.2-1.6,8.8-6.3,9.3-11.7L1,773.2c0.6-7.8-5.5-14.4-13.3-14.4h-352.9C-373.1,758.8-379.3,765.4-378.7,773.2z"/>
<polygon class="st6" points="-71.4,885 -255.1,885 -249.5,936.1 -75.4,936.1 -86.8,1081.8 -188.9,1114.3 -291,1081.8 -297,1005.7 
	-243.4,1005.7 -243.4,1043 -187.5,1058 -131.9,1043 -127.6,983.5 -298.7,983.5 -310.1,838.2 -67.8,838.2 "/>
<polyline class="st7" points="-99.5,860.8 -280,860.8 -274,956.8 -100,956.8 -106.5,1048.8 -190,1082.8 -274,1048.8 -279.7,1005.7 
	"/>
<polyline class="st8" points="-536.8,610.2 -717.3,610.2 -711.3,706.2 -543.3,706 -549.2,800.5 -627.3,832.2 -705.4,800.5 
	-708.3,754.1 "/>
<polyline class="st1" points="-1756.9,39 -1916.2,39 -1910.9,123.7 -1762.5,123.6 -1767.8,207 -1836.7,235 -1905.7,207 -1908.2,166 
	"/>
<polyline class="st3" points="-1477.8,2018.5 -1592,1972.3 -1609.4,1693.8 -1345.4,1693.8 -1363.5,1972.3 -1477.8,2018.5 "/>
<polyline class="st1" points="-1397.8,1758.2 -1557.1,1758.2 -1551.8,1842.9 -1403.4,1842.8 -1408.7,1926.2 -1477.6,1954.2 
	-1546.6,1926.2 -1549.1,1885.2 "/>
<polyline class="st9" points="-2762.4,299.3 -2876.6,253.1 -2894,-25.4 -2630,-25.4 -2648.1,253.1 -2762.4,299.3 "/>
<polyline class="st1" points="-2682.4,39 -2841.7,39 -2836.4,123.7 -2688,123.6 -2693.3,207 -2762.2,235 -2831.2,207 -2833.7,166 
	"/>
<polyline class="st10" points="-1046.1,39 -1205.4,39 -1200.1,123.7 -1051.8,123.6 -1057.1,207 -1126,235 -1194.9,207 -1197.5,166 
	"/>
<line class="st4" x1="-1836.9" y1="299.3" x2="-1836.9" y2="348"/>
<line class="st4" x1="-1836.9" y1="299.3" x2="-1788.2" y2="299.3"/>
<line class="st4" x1="-1836.9" y1="299.3" x2="-1836.9" y2="250.7"/>
<line class="st4" x1="-1836.9" y1="299.3" x2="-1885.6" y2="299.3"/>
<line class="st4" x1="-1836.9" y1="299.3" x2="-1802.5" y2="333.8"/>
<line class="st4" x1="-1836.9" y1="299.3" x2="-1802.5" y2="264.9"/>
<line class="st4" x1="-1836.9" y1="299.3" x2="-1871.3" y2="264.9"/>
<line class="st4" x1="-1836.9" y1="299.3" x2="-1871.3" y2="333.8"/>
<polyline class="st0" points="-1476.9,1629.3 -1591.1,1583.1 -1608.5,1304.7 -1344.5,1304.7 -1362.6,1583.1 -1476.9,1629.3 "/>
<polyline class="st1" points="-1556.8,1369 -1398,1369 -1551,1453.7 -1402.5,1453.7 -1407.8,1537 -1477.4,1565.3 -1545.3,1537.2 
	-1546.6,1518 "/>
<polyline class="st11" points="-714.9,1629.3 -829.1,1583.1 -846.5,1304.7 -582.5,1304.7 -600.6,1583.1 -714.9,1629.3 "/>
<polyline class="st1" points="-794.8,1369 -636,1369 -789,1453.7 -640.5,1453.7 -645.8,1537 -715.4,1565.3 -783.3,1537.2 
	-784.6,1518 "/>
<polyline class="st12" points="-1106.9,1629.3 -1221.1,1583.1 -1238.5,1304.7 -974.5,1304.7 -992.6,1583.1 -1106.9,1629.3 "/>
<polyline class="st1" points="-1186.8,1369 -1028,1369 -1181,1453.7 -1032.5,1453.7 -1037.8,1537 -1107.4,1565.3 -1175.3,1537.2 
	-1176.6,1518 "/>
<g>
	<line class="st13" x1="-673.4" y1="-982.2" x2="-673.4" y2="-1034.2"/>
	<line class="st13" x1="-702" y1="-1034.2" x2="-644.8" y2="-1034.2"/>
	<line class="st13" x1="-720.8" y1="-1044.8" x2="-720.8" y2="-982.2"/>
	<line class="st13" x1="-720.9" y1="-1011.5" x2="-762.2" y2="-1011.5"/>
	<polyline class="st13" points="-762.2,-1044.8 -762.2,-1013.5 -762.2,-982.2 	"/>
	<polyline class="st14" points="-575.3,-981.8 -575.3,-1035.4 -577.3,-1035.4 -600.2,-1006 -623,-1035.4 -625,-1035.4 -625,-981.8 	
		"/>
	<polyline class="st14" points="-544.2,-1044.3 -544.2,-991.7 -505,-991.7 	"/>
</g>
<g>
	<polyline class="st14" points="-1061.5,-1034.7 -1106.5,-1034.7 -1106.5,-992 -1061.5,-992 	"/>
	<polyline class="st14" points="-994.3,-1034.7 -1042.7,-1034.7 -1042.7,-1031.1 -1004.3,-995.6 -1004.3,-992 -1051.3,-992 	"/>
	<polyline class="st14" points="-927.5,-1034.7 -976,-1034.7 -976,-1031.1 -937.6,-995.6 -937.6,-992 -984.5,-992 	"/>
</g>
<g>
	<polyline class="st14" points="-1414.9,-1039.8 -1414.9,-987.2 -1463,-987.2 	"/>
	<polyline class="st14" points="-1337.1,-1029.6 -1385.6,-1029.6 -1385.6,-1026 -1347.2,-990.4 -1347.2,-986.8 -1394.1,-986.8 	"/>
</g>
<g>
	<path class="st6" d="M651-1019.5c-100.3,0-200.7,0-301,0c0-100.3,0-200.7,0-301c100.3,0,200.7,0,301,0
		C651-1220.1,651-1119.8,651-1019.5z M488-1153.4c0-2.8,0-5.6,0-8.5c-1.4-2.2-2.8-4.5-4.3-6.7c-5.3-2.7-9.5,0-13.7,2.3
		c-5.2,2.8-10.1,6.2-13.2,11.5c-0.6,1-1.8,1.8-3,2.4c-4.7,2.7-9.5,5.3-14.3,7.8c-1.7,0.9-3.3,1.7-4.9,2.8c-1.8,1.3-4.1,1.9-5.9,2.6
		c-3.9-3.4-7.2-6.5-10.7-9.5c-2.1-1.7-4.4-3.1-6.5-4.7c-3.8-3-7.6-5.9-11.2-9.1c-2.8-2.5-5.3-5.3-7.6-8.3c-3.1-4.1-5.1-8.3-4.9-13.5
		c0.1-1.8,0-3.7,0-5.5c-0.1-4.1,1.4-7.9,3.3-11.1c1.8-3.1,3.6-6.4,6.5-8.9c1.2-1,1.8-2.6,2.9-3.7c1.1-1.1,2.6-1.8,3.8-2.9
		c2.2-1.9,4.3-3.9,6.6-5.7c6.9-5.5,14.5-9.9,22.3-13.9c10.9-5.7,22.2-10.8,34.3-13.7c7.3-1.8,14.7-2.3,22-3.6c2.4-0.4,4.4,1.1,6.6,1
		c3.9-0.2,7.5,1.1,11.2,2c3.3,0.8,6,2.7,8.5,4.7c3,2.3,3.7,6.1,4,9.8c0.3,4.2-1,8.1-2.7,11.8c-4.5,9.6-11.6,16.9-20.2,22.7
		c-3.1,2.1-6.1,4.7-9.6,5.8c-2.7,0.9-5,2.5-7.7,3.2c-2.9,0.7-5.7,1.6-8.5,2.4c-4.8,1.2-9.5,2.2-14.4,2.6c-1.8,0.2-3.7,0-5.5,0
		c-7.6,0-14.4-2.3-19.7-7.9c-1-1.1-2.1-1.4-3.6-0.7c-0.5,3.4,1.3,6.1,3.3,8.5c3,3.6,7.3,5.4,11.4,7.5c3.8,1.9,7.9,1.9,11.9,2.6
		c6.3,1.1,12.7-1,19.1-0.9c0.2,0,0.3,0,0.5,0c4.7-1.7,9.6-2.5,14.4-4c6.4-2,12.7-4.5,18-8.4c4.8-3.5,9.6-7.2,13.6-12
		c4.5-5.4,8.4-11,11.1-17.5c1.5-3.7,3.1-7.6,3.6-11.5c0.5-3.9,0.2-8-0.7-12.1c-1.5-7.2-5.5-12.5-11.2-16.6c-4.2-3-8.7-5.2-13.8-6.5
		c-4.8-1.2-9.4-2.7-14.4-2.5c-7.7,0.4-15.4-0.9-23.1,0.9c-4,0.9-8.2,1-12.1,2.2c-3.1,0.9-6.1,2.1-9.2,3.1c-2.9,1-5.7,2.3-8.5,3.5
		c-3,1.3-6,2.5-8.9,3.9c-5.7,2.7-11.3,5.6-16.9,8.8c-7.7,4.4-15.2,9.2-21.7,15c-4,3.6-8.4,7-11.8,11.4c-2.7,3.4-5.5,6.7-7.9,10.3
		c-3.2,4.6-5.4,9.6-6.8,15.2c-0.8,3.1-0.4,6.1-0.8,9.1c-0.3,2.5,0.8,4.6,1.7,6.8c2.6,5.8,5.9,11.2,10.6,15.6
		c3.5,3.4,6.8,7.1,10.9,9.9c3.3,2.3,6.2,5.1,9.5,7.2c6.4,4,12.3,8.6,18.4,12.9c-0.2,0.5-0.3,0.9-0.5,1c-4.9,2.7-9.9,5.1-14.6,8.2
		c-9.3,6.2-14.7,9.5-21.2,17.5c-3.9,4.8-5.8,10.4-6.7,16.2c-0.9,5.5,1.6,10.5,4.4,15.1c1.3,2.1,3.5,3.4,6.2,4.3
		c3.3,1.1,6.4,0.6,9.6,0.9c3.9,0.4,7.8-0.1,11.4-1.4c11.9-4.3,19.4-10.6,25.8-21.6c3.8-6.6,4.5-14,5.4-21.2c0.3-2-0.6-4.2-0.7-6.1
		c-0.2-3.8-1.7-7.1-3-10.6c4.6-2.6,9.1-5.2,14.5-8.3c-2.9,4.8-2.9,9.5-3.5,13.9c-0.8,6-0.5,12.2,1.7,18.2c2,5.4,4,10.7,9.8,13.1
		c2,0,4,0,5.4,0c5-1.8,6.8-5.9,8.8-9.6c2.2-3.9,3.7-8.1,5.6-12.2c-0.1,3.2-1.5,6.2,0.5,9.2c-0.5,3.9,1.9,6.3,4.5,8.6
		c6,0.1,6,0,10.2-4.2c3.3-3.3,4.9-7.6,7.3-11.5c1.4-2.4,2.4-5,3.7-7.5c2-3.8,4.9-7.4,6.1-11.4c1-3.7,3.4-6.6,4.3-10.2
		c0.9-3.5,2.9-6.8,4.7-10.8c2.2,7.5,4.4,14.4,8.5,20.9c-4.8,5.8-9.6,11.6-14.4,17.4c-2.3,2.8-4.8,5.5-6.1,9.1
		c0.8,1.4,1.6,2.7,2.2,3.9c3.3,0.9,6.2,2.3,9.3,0.3c4.7,0.4,8.5-1.9,12.4-4c3.7-2,7.2-4.4,9.3-8.1c3.3-5.8,3.4-10.5,1.4-17.1
		c-0.5-1.8-1.3-3.6-1.3-5.4c0-1.9,1.7-3.3,2.7-4.9c4.1-6.7,8-13.6,12-20.5c0.4,1.4,0.8,2.9,1.2,4.4c1.4,5.2,3.1,10.4,5.9,15.2
		c-2,2-4.1,4.1-6.3,6.1c-2.6,2.4-4.8,5.2-6.3,8.4c-1.4,3.1-2.3,6.4-3.3,9.6c-0.2,0.6,0.3,1.5,0.5,2.2c0.2,0.8,0.4,1.5,0.6,2.6
		c0.9,0.9,2.2,2,3.5,3.2c5.2,0.9,9.7-1.6,14.1-4c5.8-3.1,10.3-7.5,13.2-13.8c0-3.3,0-7,0-10.3c-0.7-1.3-1.3-2.4-1.9-3.5
		c2.8-2.2,6.4-3,9.7-3.1c7.2-0.2,14.4-1,21.6,0.8c6.6,1.7,12.6,4.3,16.9,9.8c1.7,2.2,3.2,4.8,3.7,7.4c0.8,5-0.5,9.1-5.6,13.1
		c-1.3,1-3,2.1-3.5,4.6c1.7-0.2,2.9,0.1,4.6-0.6c5.3-2.2,8.3-6.2,10.6-11.1c0-2.1-0.2-4.3,0-6.5c0.3-3.5-0.9-6.6-2.4-9.5
		c-2.3-4.6-5.8-8.3-10.1-11.3c-6.3-4.4-13.2-6.5-20.7-6.8c-4.5-0.2-9.1-0.5-13.6,0.8c-2.7,0.8-5.5,1.1-8.1,2.1
		c-2.2,0.8-4.4,1.5-6.7,2.2c-0.6-1.4-1.1-2.8-1.8-4c-2.6-4.1-3-8.9-3.7-13.5c-0.6-4.4,1.1-8.5,2.3-12.5c0.7-2.3,1.4-4.3-0.8-6.1
		c-11.6-0.3-11.6-0.3-15.1,1.9c-2.5,6.5-3.6,13.4-7.3,19.5c-3.7,6.1-6.8,12.5-10.5,18.6c-4-4-3.5-9.2-4.6-13.8
		c-0.6-2.3,0.9-4.4,1-6.6c0.2-3.3,1.7-6.2,2.8-9.3c-0.7-0.7-1.5-1.5-2.3-2.4c-2.6-0.8-5.3-1.6-8-0.9c-2.5,0.6-4.9,1.8-7,2.6
		c-1.4,4.6-2.2,8.6-3.9,12.5c-1.4,3.1-3.2,6.1-4.2,9.2c-1.3,4.2-3.7,7.8-5.2,11.9c-1.5,4-3.4,7.9-5.1,11.9
		c-2.4,5.2-5.8,9.9-7.2,15.5c-0.2,0.6-0.6,1.1-1,1.6c-0.8-1.7-0.9-3-0.8-4.2c0.2-1.2,0.8-2.4,0.9-3.6c0.6-5.3,2.5-10.3,3.5-15.5
		c0.9-4.5,3-8.7,2.4-13.5c-0.8-0.8-1.6-1.6-2.5-2.5C491.7-1153.4,489.8-1153.4,488-1153.4z"/>
	<path d="M488.1-1153.4c1.8,0,3.6,0,5.4,0c0.8,0.8,1.6,1.7,2.5,2.5c0.6,4.7-1.6,9-2.4,13.5c-1,5.2-2.9,10.2-3.5,15.5
		c-0.1,1.2-0.8,2.4-0.9,3.6c-0.2,1.3,0,2.6,0.8,4.2c0.3-0.5,0.8-1,1-1.6c1.4-5.6,4.8-10.3,7.2-15.5c1.8-3.9,3.7-7.8,5.1-11.9
		c1.5-4.1,3.8-7.7,5.2-11.9c1-3.2,2.8-6.1,4.2-9.2c1.7-3.9,2.6-7.9,3.9-12.5c2.1-0.8,4.5-1.9,7-2.6c2.7-0.7,5.4,0,8,0.9
		c0.8,0.8,1.6,1.7,2.3,2.4c-1.1,3.1-2.7,6-2.8,9.3c-0.1,2.2-1.6,4.2-1,6.6c1.2,4.7,0.6,9.9,4.6,13.8c3.7-6.1,6.8-12.6,10.5-18.6
		c3.7-6.1,4.8-13,7.3-19.5c3.5-2.2,3.5-2.2,15.1-1.9c2.2,1.8,1.5,3.8,0.8,6.1c-1.2,4.1-3,8.1-2.3,12.5c0.7,4.6,1.1,9.3,3.7,13.5
		c0.7,1.2,1.2,2.5,1.8,4c2.3-0.7,4.5-1.4,6.7-2.2c2.7-1,5.5-1.4,8.1-2.1c4.6-1.3,9.1-1,13.6-0.8c7.4,0.3,14.4,2.4,20.7,6.8
		c4.3,3,7.7,6.7,10.1,11.3c1.5,2.9,2.7,6,2.4,9.5c-0.2,2.2,0,4.3,0,6.5c-2.3,4.9-5.3,8.9-10.6,11.1c-1.7,0.7-2.9,0.4-4.6,0.6
		c0.5-2.5,2.2-3.6,3.5-4.6c5.1-3.9,6.4-8.1,5.6-13.1c-0.4-2.6-2-5.3-3.7-7.4c-4.2-5.5-10.3-8.2-16.9-9.8c-7.1-1.8-14.4-1-21.6-0.8
		c-3.2,0.1-6.8,0.8-9.7,3.1c0.6,1.2,1.2,2.2,1.9,3.5c0,3.3,0,7,0,10.3c-2.9,6.3-7.4,10.7-13.2,13.8c-4.4,2.3-8.9,4.9-14.1,4
		c-1.3-1.2-2.5-2.3-3.5-3.2c-0.3-1.1-0.4-1.9-0.6-2.6c-0.2-0.8-0.7-1.6-0.5-2.2c1-3.2,1.9-6.5,3.3-9.6c1.4-3.2,3.7-6,6.3-8.4
		c2.2-2,4.3-4.2,6.3-6.1c-2.8-4.9-4.5-10-5.9-15.2c-0.4-1.5-0.8-3-1.2-4.4c-4,6.9-7.9,13.8-12,20.5c-1,1.6-2.7,2.9-2.7,4.9
		c0,1.8,0.7,3.6,1.3,5.4c2,6.6,1.9,11.2-1.4,17.1c-2.1,3.7-5.5,6.1-9.3,8.1c-3.9,2.1-7.7,4.3-12.4,4c-3.1,2-6.1,0.6-9.3-0.3
		c-0.7-1.2-1.4-2.5-2.2-3.9c1.3-3.6,3.8-6.3,6.1-9.1c4.8-5.8,9.6-11.6,14.4-17.4c-4.1-6.5-6.3-13.4-8.5-20.9
		c-1.8,4-3.8,7.3-4.7,10.8c-1,3.7-3.3,6.6-4.3,10.2c-1.2,4.1-4.1,7.6-6.1,11.4c-1.3,2.4-2.3,5.1-3.7,7.5c-2.3,3.9-4,8.2-7.3,11.5
		c-4.2,4.2-4.2,4.2-10.2,4.2c-2.5-2.4-5-4.7-4.5-8.6c-2-3-0.6-6-0.5-9.2c-1.8,4.1-3.4,8.3-5.6,12.2c-2,3.7-3.9,7.8-8.8,9.6
		c-1.4,0-3.4,0-5.4,0c-5.8-2.4-7.7-7.7-9.8-13.1c-2.2-5.9-2.6-12.1-1.7-18.2c0.6-4.4,0.6-9.1,3.5-13.9c-5.4,3.1-9.9,5.7-14.5,8.3
		c1.3,3.5,2.8,6.8,3,10.6c0.1,1.9,1,4.1,0.7,6.1c-0.9,7.3-1.6,14.6-5.4,21.2c-6.3,11.1-13.9,17.3-25.8,21.6
		c-3.6,1.3-7.5,1.7-11.4,1.4c-3.2-0.3-6.4,0.2-9.6-0.9c-2.6-0.9-4.9-2.2-6.2-4.3c-2.8-4.6-5.3-9.6-4.4-15.1c1-5.8,2.9-11.4,6.7-16.2
		c6.5-8,11.9-11.4,21.2-17.5c4.6-3.1,9.7-5.5,14.6-8.2c0.2-0.1,0.3-0.5,0.5-1c-6.1-4.3-12-8.9-18.4-12.9c-3.4-2.1-6.3-4.9-9.5-7.2
		c-4.1-2.9-7.3-6.5-10.9-9.9c-4.7-4.5-8-9.8-10.6-15.6c-1-2.2-2-4.3-1.7-6.8c0.4-3,0-6,0.8-9.1c1.4-5.6,3.6-10.6,6.8-15.2
		c2.4-3.6,5.3-6.9,7.9-10.3c3.5-4.4,7.8-7.8,11.8-11.4c6.5-5.9,14-10.7,21.7-15c5.5-3.1,11.1-6.1,16.9-8.8c2.9-1.4,5.9-2.6,8.9-3.9
		c2.8-1.2,5.6-2.5,8.5-3.5c3.1-1,6.1-2.2,9.2-3.1c3.9-1.2,8.1-1.2,12.1-2.2c7.7-1.8,15.4-0.6,23.1-0.9c5-0.2,9.7,1.3,14.4,2.5
		c5.1,1.3,9.6,3.5,13.8,6.5c5.7,4.1,9.7,9.3,11.2,16.6c0.9,4.1,1.1,8.2,0.7,12.1c-0.5,3.9-2,7.8-3.6,11.5c-2.7,6.4-6.6,12-11.1,17.5
		c-4,4.8-8.8,8.5-13.6,12c-5.3,3.9-11.6,6.4-18,8.4c-4.7,1.5-9.7,2.3-14.4,4c-0.1,0.1-0.3,0-0.5,0c-6.4-0.1-12.7,2-19.1,0.9
		c-4-0.7-8.1-0.6-11.9-2.6c-4.1-2.1-8.3-3.9-11.4-7.5c-2-2.4-3.8-5-3.3-8.5c1.5-0.7,2.5-0.4,3.6,0.7c5.4,5.6,12.1,7.9,19.7,7.9
		c1.8,0,3.7,0.1,5.5,0c4.9-0.4,9.7-1.3,14.4-2.6c2.9-0.7,5.7-1.7,8.5-2.4c2.7-0.7,5-2.3,7.7-3.2c3.5-1.1,6.5-3.7,9.6-5.8
		c8.6-5.9,15.7-13.2,20.2-22.7c1.7-3.7,3.1-7.7,2.7-11.8c-0.3-3.6-1-7.4-4-9.8c-2.5-2-5.2-3.9-8.5-4.7c-3.7-0.9-7.3-2.2-11.2-2
		c-2.2,0.1-4.2-1.4-6.6-1c-7.3,1.3-14.7,1.8-22,3.6c-12.2,2.9-23.4,8-34.3,13.7c-7.7,4.1-15.3,8.5-22.3,13.9
		c-2.3,1.8-4.4,3.8-6.6,5.7c-1.2,1-2.7,1.8-3.8,2.9c-1.1,1.1-1.7,2.7-2.9,3.7c-2.9,2.5-4.7,5.8-6.5,8.9c-1.9,3.2-3.4,7-3.3,11.1
		c0,1.8,0.1,3.7,0,5.5c-0.2,5.2,1.8,9.4,4.9,13.5c2.3,3,4.8,5.8,7.6,8.3c3.6,3.2,7.4,6.1,11.2,9.1c2.1,1.7,4.5,3,6.5,4.7
		c3.5,2.9,6.9,6,10.7,9.5c1.8-0.8,4.1-1.4,5.9-2.6c1.6-1.1,3.2-1.9,4.9-2.8c4.8-2.5,9.5-5.1,14.3-7.8c1.1-0.6,2.3-1.4,3-2.4
		c3.1-5.3,8-8.7,13.2-11.5c4.1-2.2,8.3-4.9,13.7-2.3c1.4,2.2,2.9,4.5,4.3,6.7C488-1159.1,488-1156.3,488.1-1153.4
		c0,0-0.1-0.1-0.1-0.1c-0.3,0.2-0.5,0.5-0.8,0.7c0.1,0.1,0.2,0.2,0.3,0.3C487.6-1152.8,487.9-1153.1,488.1-1153.4z M518-1111.4
		c1.7,0.2,3.2-0.7,4.1-1.7c2-2.2,4.7-3.8,6-6.7c0.6-1.2,0.8-2.3,0.7-3.6c0.1,0.1,0.1,0.1,0.2,0.2c0.3-0.2,0.5-0.5,0.8-0.7
		c-0.1-0.1-0.2-0.2-0.3-0.3c-0.2,0.3-0.5,0.5-0.6,0.9c-0.7,0.6-1.8,1-2.2,1.8c-1.5,3-4.2,4.9-6.3,7.3c-0.9,0.9-1.6,2-2.4,3
		c-0.1-0.1-0.1-0.1-0.2-0.2c-0.3,0.2-0.5,0.5-0.8,0.7c0.1,0.1,0.2,0.2,0.3,0.3C517.6-1110.8,517.9-1111.1,518-1111.4z M393-1089
		c1.8,1.8,3.4,3.8,6.2,3.5c2-0.3,4-0.8,5.9-1.5c6.9-2.7,12.4-7.1,16.4-13.3c2.3-3.6,4-7.5,4.5-11.6c0.5-4.7,0.1-9.6,0.1-14.5
		c-0.8,0.1-1.3,0-1.7,0.2c-4.9,2.5-9.2,5.9-13.9,8.8c-2.7,1.6-4.4,4.4-7.1,5.9c-3.6,2-5.4,5.2-7.4,8.5c-2.1,3.3-3.5,6.8-3,10.8
		C393.1-1091.3,393-1090.3,393-1089z M475.5-1157.4c-2.8,3.1-6.3,5.7-8.4,9.5c-1.9,3.5-3.7,7-5.2,10.8c-1.5,3.9-1.5,8-2.7,11.9
		c-1.2,4.1,0.8,8.3,1.8,11.7c0.2,0.9,0.4,1.8,0.7,3c1.4-1.4,2.5-2.1,3-3.1c1.9-3.5,4.1-7,5.3-10.8c2-6.2,4.9-12,6.7-18.2
		c1.2-4.2,2.3-8.4,3.4-12.6c0.2-0.7-0.1-1.5-0.1-2.3C478.2-1157.4,476.8-1157.4,475.5-1157.4z M554.7-1119
		c10.7-5.5,11.2-10.2,9.7-17.1C558.9-1132.1,556.4-1126.4,554.7-1119z"/>
	<path class="st6" d="M393-1089c0-1.4,0.1-2.4,0-3.4c-0.5-4,0.9-7.4,3-10.8c2-3.2,3.8-6.4,7.4-8.5c2.6-1.5,4.4-4.3,7.1-5.9
		c4.7-2.8,9-6.2,13.9-8.8c0.4-0.2,0.9-0.1,1.7-0.2c0,4.9,0.4,9.8-0.1,14.5c-0.4,4.1-2.2,8-4.5,11.6c-4,6.2-9.5,10.6-16.4,13.3
		c-1.9,0.7-3.9,1.3-5.9,1.5C396.4-1085.2,394.8-1087.1,393-1089z"/>
	<path class="st6" d="M475.5-1157.4c1.4,0,2.7,0,4.4,0c0.1,0.7,0.3,1.6,0.1,2.3c-1.1,4.2-2.1,8.4-3.4,12.6c-1.9,6.2-4.7,12-6.7,18.2
		c-1.2,3.8-3.4,7.2-5.3,10.8c-0.5,1-1.6,1.6-3,3.1c-0.3-1.2-0.5-2.1-0.7-3c-1-3.4-3-7.6-1.8-11.7c1.2-3.9,1.2-8,2.7-11.9
		c1.5-3.8,3.3-7.3,5.2-10.8C469.1-1151.8,472.7-1154.3,475.5-1157.4z"/>
	<path class="st6" d="M554.7-1119c1.7-7.3,4.3-13.1,9.7-17.1C565.9-1129.2,565.4-1124.6,554.7-1119z"/>
	<path class="st6" d="M529-1123.4c-0.1,1.2-0.3,2.3-0.9,3.6c-1.4,2.9-4,4.5-6,6.7c-0.9,1-2.4,1.9-4.1,1.7c0.8-1,1.6-2,2.5-2.9
		c2.2-2.4,4.8-4.3,6.3-7.3C527.2-1122.4,528.3-1122.9,529-1123.4z"/>
	<path class="st6" d="M488.1-1153.4c-0.2,0.3-0.5,0.5-0.7,0.8c-0.1-0.1-0.2-0.2-0.3-0.3c0.3-0.2,0.5-0.5,0.8-0.7
		C488-1153.5,488-1153.4,488.1-1153.4z"/>
	<path class="st6" d="M528.9-1123.5c0.2-0.3,0.5-0.5,0.7-0.8c0.1,0.1,0.2,0.2,0.3,0.3c-0.3,0.2-0.5,0.5-0.8,0.7
		C529-1123.4,529-1123.5,528.9-1123.5z"/>
	<path class="st6" d="M518.1-1111.4c-0.2,0.3-0.5,0.5-0.7,0.8c-0.1-0.1-0.2-0.2-0.3-0.3c0.3-0.2,0.5-0.5,0.8-0.7
		C518-1111.5,518-1111.4,518.1-1111.4z"/>
</g>
<g>
	<path class="st6" d="M-15.6-774.1c0,0-0.5,0.2-1.5,0.7c-1,0.4-2.5,1.1-4.5,2c-3.9,1.7-9.5,4.5-16.5,8.4c-3.5,1.9-7.2,4.2-11.2,6.9
		c-4,2.6-8.1,5.7-12.3,9.2c-4.1,3.5-8.4,7.5-12.1,12.1c-1.8,2.3-3.4,4.9-4.5,7.6c-0.6,1.3-1,2.7-1.3,4.1c-0.3,1.3-0.5,2.7-0.5,3.8
		c0,1.2,0.1,2.1,0.4,2.8c0.2,0.7,0.6,0.9,0.7,1.1c0.2,0.1,0.4,0.3,0.9,0.6c0.5,0.3,1.3,0.6,2.4,0.9c2.1,0.6,5.2,0.7,8.3,0.1
		c1.6-0.3,3.2-0.8,4.7-1.5l0.3-0.1c-0.3,0.1,0,0,0,0l0.2-0.1l0.7-0.3l0.7-0.3c0.2-0.1,0.3-0.2,0.5-0.3c0.3-0.2,0.6-0.3,1-0.5l1-0.6
		c5.5-3.3,10.1-9,12.5-15.8c2.4-6.7,2.4-14.7-0.9-21.1c-0.4-0.8-0.8-1.6-1.3-2.3l-0.3-0.5l-0.5-0.6l-0.4-0.4l-0.4-0.5
		c-1.2-1.3-2.6-2.6-4.2-3.9c-3.1-2.5-6.7-4.8-10.4-7.1c-7.4-4.6-15.5-9-23.2-15.5c-3.8-3.2-7.5-7.1-10.4-12c-3-4.8-5-11-4.9-17.2
		c0-0.4,0-0.8,0-1.2l0-0.6l0-0.3c0-0.1,0-0.6,0-0.5l0.1-0.8l0-0.2l0-0.3l0.1-0.7c0.1-0.9,0.3-1.6,0.4-2.4c0.2-0.7,0.3-1.5,0.6-2.1
		c0.8-2.8,1.8-5.3,3-7.7c2.3-4.8,5.1-9.1,8.2-13.1c6.1-7.9,13.1-14.8,20.7-20.8c7.6-6,15.7-11.2,24.2-15.4
		c17-8.5,35.6-13.4,53.8-13.9c2.3-0.1,4.5-0.1,6.8,0l1.6,0.1l1.8,0.1c1.2,0.1,2.3,0.2,3.4,0.3c4.5,0.5,9,1.3,13.5,2.6
		c4.4,1.4,8.8,3.3,12.8,6.1c3.9,2.8,7.4,6.6,9.6,11.1c2.2,4.5,3,9.4,2.7,14c-0.3,4.6-1.5,8.8-3.1,12.6c-3.3,7.7-8.3,13.8-13.7,18.7
		c-2.7,2.5-5.5,4.7-8.4,6.6c-2.9,1.9-5.9,3.6-8.8,5c-3,1.4-6,2.6-8.9,3.6c-1.4,0.5-2.8,0.9-4.2,1.4c-1.4,0.4-2.8,0.9-4.2,1.2
		c-11,3-21.3,3.9-29.5,2.7c-2.1-0.3-4-0.7-5.8-1.2c-1.8-0.5-3.5-1.1-4.9-1.7c-3-1.3-5.3-2.8-7.1-4.2c-1.8-1.4-2.9-2.7-3.7-3.6
		c-0.7-0.9-1.1-1.5-1.1-1.5c-0.3-0.5-0.2-1.1,0.3-1.4c0.5-0.3,1.1-0.2,1.4,0.3c0,0,0.3,0.4,1,1.1c0.7,0.7,1.9,1.8,3.6,2.9
		c3.4,2.2,9.1,4.6,16.8,5c7.6,0.5,17-1.1,27.2-4.6c1.3-0.4,2.6-0.9,3.8-1.4c1.3-0.5,2.6-1,4-1.6c2.7-1.1,5.2-2.3,7.8-3.8
		c5.1-2.9,10.2-6.6,14.6-11.2c4.4-4.5,8.3-10,10.5-16.1c2.2-6,2.5-12.7-0.3-17.7c-1.4-2.5-3.5-4.7-6.2-6.4c-2.7-1.7-5.9-3-9.4-3.9
		c-7-1.8-15-2-23-1.5c-16,1-32.3,5.9-47.2,14c-7.4,4.1-14.5,8.8-21.1,14.3c-6.5,5.5-12.5,11.6-17.4,18.3c-2.4,3.3-4.5,6.8-6.1,10.3
		c-0.8,1.7-1.4,3.4-1.8,5c-0.1,0.4-0.2,0.8-0.3,1.2c-0.1,0.4-0.2,0.8-0.2,1l0,0.2l0,0.1l0,0.2l-0.1,0.9c0,0.3,0-0.2,0-0.1l0,0.1
		l0,0.3c0,0.2,0,0.4,0,0.5c0,2.9,0.8,5.7,2.3,8.7c1.5,3,3.8,6.1,6.4,9.1c5.3,6.1,12.1,11.7,18.9,17.4c3.4,2.9,6.9,5.7,10.4,8.9
		c1.7,1.6,3.4,3.3,5,5.3l0.6,0.8l0.6,0.9l0.4,0.7c0,0,0.2,0.3,0.2,0.3l0.1,0.2l0.2,0.4c0.7,1.1,1.3,2.2,1.8,3.3
		c2.1,4.5,3.2,9.4,3.4,14.2c0.1,2.4,0,4.8-0.3,7.1c-0.3,2.3-0.7,4.6-1.4,6.9c-2.4,9-7.7,17.1-15.1,22.7l-1.4,1c-0.5,0.3-1,0.7-1.6,1
		c-0.3,0.2-0.6,0.4-0.8,0.5l-0.6,0.4l-0.6,0.4l-0.2,0.1c-0.1,0.1,0.1,0-0.3,0.2l-0.4,0.2c-1.9,1-3.9,1.9-6,2.7
		c-4.1,1.7-8.6,3.1-13.8,3c-2.6-0.1-5.4-0.6-8.2-1.9c-2.7-1.3-5.4-3.5-7.2-6.4c-1.8-2.8-2.5-6.1-2.6-8.9c0-2.8,0.6-5.3,1.4-7.5
		c1.7-4.3,4.2-7.5,6.6-10.2c2.5-2.7,5-5.1,7.5-7.3c4.8-4.5,9.8-8.1,14.6-11.2c4.7-3.1,9.3-5.8,13.6-8.1c4.3-2.3,8.3-4.3,11.9-6
		c7.3-3.5,13.1-5.9,17-7.6c3.9-1.7,6.1-2.6,6.1-2.6c0.5-0.2,1.1,0,1.3,0.5S-15.1-774.3-15.6-774.1z"/>
</g>
<g>
	<path class="st6" d="M-15.6-1027.6c0,0-0.5,0.2-1.5,0.7c-1,0.4-2.5,1.1-4.5,2c-3.9,1.7-9.5,4.5-16.5,8.4c-3.5,1.9-7.2,4.2-11.2,6.9
		c-4,2.6-8.1,5.7-12.3,9.2c-4.1,3.5-8.4,7.5-12.1,12.1c-1.8,2.3-3.4,4.9-4.5,7.6c-0.6,1.3-1,2.7-1.3,4.1c-0.3,1.3-0.5,2.7-0.5,3.8
		c0,1.2,0.1,2.1,0.4,2.8c0.2,0.7,0.6,0.9,0.7,1.1c0.2,0.1,0.4,0.3,0.9,0.6c0.5,0.3,1.3,0.6,2.4,0.9c2.1,0.6,5.2,0.7,8.3,0.1
		c1.6-0.3,3.2-0.8,4.7-1.5l0.3-0.1c-0.3,0.1,0,0,0,0l0.2-0.1l0.7-0.3l0.7-0.3c0.2-0.1,0.3-0.2,0.5-0.3c0.3-0.2,0.6-0.3,1-0.5l1-0.6
		c5.5-3.3,10.1-9,12.5-15.8c2.4-6.7,2.4-14.7-0.9-21.1c-0.4-0.8-0.8-1.6-1.3-2.3l-0.3-0.5l-0.5-0.6l-0.4-0.4l-0.4-0.5
		c-1.2-1.3-2.6-2.6-4.2-3.9c-3.1-2.5-6.7-4.8-10.4-7.1c-7.4-4.6-15.5-9-23.2-15.5c-3.8-3.2-7.5-7.1-10.4-12c-3-4.8-5-11-4.9-17.2
		c0-0.4,0-0.8,0-1.2l0-0.6l0-0.3c0-0.1,0-0.6,0-0.5l0.1-0.8l0-0.2l0-0.3l0.1-0.7c0.1-0.9,0.3-1.6,0.4-2.4c0.2-0.7,0.3-1.5,0.6-2.1
		c0.8-2.8,1.8-5.3,3-7.7c2.3-4.8,5.1-9.1,8.2-13.1c6.1-7.9,13.1-14.8,20.7-20.8c7.6-6,15.7-11.2,24.2-15.4
		c17-8.5,35.6-13.4,53.8-13.9c2.3-0.1,4.5-0.1,6.8,0l1.6,0.1l1.8,0.1c1.2,0.1,2.3,0.2,3.4,0.3c4.5,0.5,9,1.3,13.5,2.6
		c4.4,1.4,8.8,3.3,12.8,6.1c3.9,2.8,7.4,6.6,9.6,11.1c2.2,4.5,3,9.4,2.7,14c-0.3,4.6-1.5,8.8-3.1,12.6c-3.3,7.7-8.3,13.8-13.7,18.7
		c-2.7,2.5-5.5,4.7-8.4,6.6c-2.9,1.9-5.9,3.6-8.8,5c-3,1.4-6,2.6-8.9,3.6c-1.4,0.5-2.8,0.9-4.2,1.4c-1.4,0.4-2.8,0.9-4.2,1.2
		c-11,3-21.3,3.9-29.5,2.7c-2.1-0.3-4-0.7-5.8-1.2c-1.8-0.5-3.5-1.1-4.9-1.7c-3-1.3-5.3-2.8-7.1-4.2c-1.8-1.4-2.9-2.7-3.7-3.6
		c-0.7-0.9-1.1-1.5-1.1-1.5c-0.3-0.5-0.2-1.1,0.3-1.4c0.5-0.3,1.1-0.2,1.4,0.3c0,0,0.3,0.4,1,1.1c0.7,0.7,1.9,1.8,3.6,2.9
		c3.4,2.2,9.1,4.6,16.8,5c7.6,0.5,17-1.1,27.2-4.6c1.3-0.4,2.6-0.9,3.8-1.4c1.3-0.5,2.6-1,4-1.6c2.7-1.1,5.2-2.3,7.8-3.8
		c5.1-2.9,10.2-6.6,14.6-11.2c4.4-4.5,8.3-10,10.5-16.1c2.2-6,2.5-12.7-0.3-17.7c-1.4-2.5-3.5-4.7-6.2-6.4c-2.7-1.7-5.9-3-9.4-3.9
		c-7-1.8-15-2-23-1.5c-16,1-32.3,5.9-47.2,14c-7.4,4.1-14.5,8.8-21.1,14.3c-6.5,5.5-12.5,11.6-17.4,18.3c-2.4,3.3-4.5,6.8-6.1,10.3
		c-0.8,1.7-1.4,3.4-1.8,5c-0.1,0.4-0.2,0.8-0.3,1.2c-0.1,0.4-0.2,0.8-0.2,1l0,0.2l0,0.1l0,0.2l-0.1,0.9c0,0.3,0-0.2,0-0.1l0,0.1
		l0,0.3c0,0.2,0,0.4,0,0.5c0,2.9,0.8,5.7,2.3,8.7c1.5,3,3.8,6.1,6.4,9.1c5.3,6.1,12.1,11.7,18.9,17.4c3.4,2.9,6.9,5.7,10.4,8.9
		c1.7,1.6,3.4,3.3,5,5.3l0.6,0.8l0.6,0.9l0.4,0.7c0,0,0.2,0.3,0.2,0.3l0.1,0.2l0.2,0.4c0.7,1.1,1.3,2.2,1.8,3.3
		c2.1,4.5,3.2,9.4,3.4,14.2c0.1,2.4,0,4.8-0.3,7.1c-0.3,2.3-0.7,4.6-1.4,6.9c-2.4,9-7.7,17.1-15.1,22.7l-1.4,1c-0.5,0.3-1,0.7-1.6,1
		c-0.3,0.2-0.6,0.4-0.8,0.5l-0.6,0.4l-0.6,0.4l-0.2,0.1c-0.1,0.1,0.1,0-0.3,0.2l-0.4,0.2c-1.9,1-3.9,1.9-6,2.7
		c-4.1,1.7-8.6,3.1-13.8,3c-2.6-0.1-5.4-0.6-8.2-1.9c-2.7-1.3-5.4-3.5-7.2-6.4c-1.8-2.8-2.5-6.1-2.6-8.9c0-2.8,0.6-5.3,1.4-7.5
		c1.7-4.3,4.2-7.5,6.6-10.2c2.5-2.7,5-5.1,7.5-7.3c4.8-4.5,9.8-8.1,14.6-11.2c4.7-3.1,9.3-5.8,13.6-8.1c4.3-2.3,8.3-4.3,11.9-6
		c7.3-3.5,13.1-5.9,17-7.6c3.9-1.7,6.1-2.6,6.1-2.6c0.5-0.2,1.1,0,1.3,0.5S-15.1-1027.8-15.6-1027.6z"/>
</g>
<g class="st15">
	<path class="st6" d="M-332.2-788.8c0,0-0.5,0.3-1.5,0.8c-1,0.5-2.5,1.3-4.3,2.3c-1.9,1-4.2,2.3-6.9,3.8c-2.7,1.6-5.8,3.4-9.2,5.5
		c-3.4,2.1-7.1,4.5-11.1,7.3c-4,2.7-8.1,5.8-12.3,9.3c-4.2,3.5-8.5,7.5-12.1,12.1c-1.8,2.3-3.4,4.8-4.6,7.3c-1.2,2.5-2,5-2,6.9
		c0,0.9,0.2,1.6,0.4,2.2c0.2,0.6,0.6,1.1,1.1,1.8c0.5,0.6,1.3,1.4,2.3,2.1l0.1,0.1c0.1,0.1-0.7-0.5-0.3-0.2l0.3,0.2
		c0.4,0.2,0-0.1-0.2-0.1c-0.3-0.1-0.2-0.1-0.2-0.1c0,0,0,0,0,0c0.1,0,0.4,0.1,0.8,0.1c0.9,0,2.1-0.1,3.5-0.3
		c1.4-0.3,2.8-0.7,4.3-1.2c3-1,6-2.5,8.9-4.3c5.8-3.5,11.1-8.4,14.1-14.5c1.4-3.1,2.2-6.4,2.1-9.9c-0.1-3.5-1.1-7-2.8-10.4
		c-0.4-0.8-0.9-1.7-1.4-2.5c-0.3-0.4-0.5-0.8-0.8-1.2l-0.4-0.6l-0.2-0.3c0,0-0.1-0.2-0.1-0.1l-0.1-0.2c-1.1-1.4-2.4-2.8-3.9-4.1
		c-3-2.6-6.5-5-10.2-7.3c-7.4-4.7-15.6-9-23.4-15.3c-3.9-3.1-7.6-6.8-10.8-11.5c-3.1-4.6-5.5-10.4-6-16.6c-0.1-0.8-0.1-1.5-0.1-2.3
		l0-0.6l0-0.5l0-0.2l0-0.9l0-0.2l0-0.3l0-0.6c0-0.4,0.1-0.9,0.1-1.2c0.1-0.7,0.2-1.5,0.3-2.2c0.5-2.9,1.3-5.6,2.2-8.2
		c1.9-5.1,4.5-9.8,7.4-14c5.8-8.5,13-15.5,20.6-21.7c7.7-6.1,16-11.3,24.7-15.4c17.3-8.3,36-12.6,54.2-13.2c1.1-0.1,2.3,0,3.4-0.1
		c1.2,0,2.3,0,3.5,0c1.1,0,2.2,0.1,3.2,0.1c1.2,0.1,2.4,0.1,3.5,0.2c4.5,0.4,9.1,1.1,13.5,2.4c4.5,1.2,8.9,3.1,12.9,5.7
		c4,2.6,7.7,6.3,10.1,10.7c2.4,4.4,3.5,9.4,3.3,14c-0.1,4.7-1.2,9-2.8,12.9c-3.2,7.8-8.2,14-13.6,19.1c-5.4,5.1-11.3,8.9-17.3,11.8
		c-3,1.4-6,2.7-8.9,3.7c-2.8,1-5.7,1.9-8.5,2.6c-11.1,3.1-21.4,4-29.7,2.8c-2.1-0.2-4-0.7-5.9-1.2c-1.8-0.5-3.5-1.1-5-1.7
		c-3-1.3-5.4-2.8-7.2-4.2c-1.8-1.4-3-2.7-3.7-3.6c-0.7-0.9-1.1-1.5-1.1-1.5c-0.3-0.5-0.2-1.1,0.3-1.4c0.5-0.3,1.1-0.2,1.4,0.3
		c0,0,0.3,0.4,1,1.1c0.7,0.7,1.9,1.8,3.6,2.9c3.4,2.2,9.2,4.6,16.9,5c7.7,0.5,17.1-1.2,27.4-4.8c2.6-0.9,5.1-1.9,7.9-3.1
		c2.6-1.1,5.2-2.4,7.8-3.9c2.6-1.5,5.1-3.2,7.6-5.1c2.5-1.9,4.8-4,7-6.3c4.4-4.6,8.2-10.2,10.3-16.3c2.1-6.1,2.1-12.7-0.9-17.6
		c-1.5-2.5-3.8-4.6-6.6-6.2c-2.8-1.6-6.1-2.9-9.7-3.7c-3.6-0.8-7.4-1.3-11.3-1.4c-1-0.1-1.9,0-2.9-0.1c-1,0-2.1,0-3.2,0
		c-1,0-2,0.1-2.9,0.1c-1,0.1-2,0.1-3,0.2c-16.3,1.1-32.8,5.6-47.9,13.5c-7.5,3.9-14.8,8.6-21.3,14.1c-6.5,5.5-12.4,11.7-16.8,18.5
		c-2.2,3.4-4,6.9-5.2,10.4c-0.6,1.7-1,3.5-1.3,5.1c-0.1,0.4-0.1,0.8-0.1,1.2c0,0.2,0,0.3,0,0.5l0,0.2l0,0.1l0,0.2l0,0.9l0,0.2
		c0-0.4,0,0,0-0.1l0,0.3c0,0.4,0,0.8,0.1,1.1c0.3,3,1.2,6,2.9,9.1c1.7,3.1,4,6.2,6.8,9.3c5.5,6.1,12.3,11.9,19.2,17.6
		c3.5,2.9,7,5.7,10.5,9c1.7,1.7,3.5,3.5,4.9,5.6l1.1,1.5c0.3,0.5,0.7,1,1,1.5c0.6,1,1.2,2.1,1.8,3.1c2.3,4.3,3.9,9,4.5,14
		c0.5,5,0,10.1-1.5,14.8c-1.5,4.7-3.9,9-6.7,12.7c-2.8,3.7-6.1,7-9.7,9.8c-3.6,2.8-7.4,5.1-11.6,6.9c-2.1,0.9-4.3,1.7-6.6,2.2
		c-2.3,0.5-4.8,1-7.7,0.9c-1.4-0.1-3-0.2-4.7-0.7c-0.4-0.1-0.8-0.2-1.3-0.4c-0.5-0.2-0.8-0.3-1.5-0.7c-0.3-0.2-0.6-0.3-0.9-0.5
		c-0.4-0.2-0.4-0.2-0.5-0.3l-0.3-0.2c0.3,0.2-0.6-0.4-0.5-0.4l-0.2-0.1c-1.9-1.5-3.8-3.3-5.3-5.6c-1.6-2.2-2.8-5-3.3-7.9
		c-0.2-1.4-0.4-2.9-0.3-4.2c0.1-1.4,0.2-2.7,0.5-3.9c0.6-2.5,1.6-4.6,2.6-6.5c1.1-1.9,2.3-3.5,3.5-5c2.5-2.9,5.2-5.3,7.8-7.5
		c2.6-2.1,5.2-4,7.8-5.8c2.5-1.8,5-3.4,7.4-5c9.7-6.1,18.5-10.5,25.8-14.2c3.6-1.8,6.9-3.3,9.7-4.6c2.8-1.3,5.3-2.5,7.2-3.4
		c3.9-1.8,6-2.7,6-2.7c0.5-0.2,1.1,0,1.3,0.5C-331.6-789.6-331.8-789-332.2-788.8z"/>
</g>
<path class="st16" d="M-1645.8-773.2c-15.1,0.1-28.3,3.7-39.3,9.1c-4.1-8-8.1-15.1-8.8-20.3c-0.8-6.1-1.7-9.8-0.8-17.1
	c0.9-7.3,5.2-17.6,5.2-18.4c-0.1-0.8-0.9-4.5-9.6-4.6c-8.7-0.1-16.2,1.7-17.1,4c-0.8,2.3-2.5,7.5-3.6,12.9
	c-1.5,8-17.4,36.1-26.5,50.9c-3-5.8-5.5-10.8-6-14.9c-0.8-6.1-1.7-9.8-0.8-17.1c0.9-7.3,5.2-17.6,5.2-18.4c-0.1-0.8-0.9-4.5-9.6-4.6
	c-8.7-0.1-16.2,1.7-17.1,4c-0.8,2.3-1.8,7.7-3.6,12.9c-1.8,5.2-22.9,52.3-28.4,64.6c-2.8,6.3-5.2,11.3-7,14.6
	c-1.8,3.4-0.1,0.3-0.3,0.6c-1.5,2.9-2.4,4.5-2.4,4.5v0.1c-1.2,2.1-2.5,4.1-3,4.1c-0.4,0-1.3-5.7,0.2-13.5
	c3.1-16.3,10.7-41.8,10.7-42.7c0-0.4,1.4-4.9-4.9-7.2c-6.2-2.3-8.4,1.5-8.9,1.5c-0.5,0-0.9,1.4-0.9,1.4s6.9-28.7-13.1-28.7
	c-12.5,0-29.8,13.6-38.3,26.1c-5.4,3-16.9,9.2-29.1,15.9c-4.7,2.5-9.5,5.2-14,7.7l-0.9-1c-24.2-25.8-69-44.1-67.1-78.8
	c0.7-12.6,5.1-45.9,86-86.1c66.3-33,119.3-23.9,128.5-3.8c13.1,28.8-28.3,82.2-97.2,89.9c-26.2,3-40-7.2-43.5-11
	c-3.6-4-4.1-4.1-5.5-3.4c-2.2,1.2-0.8,4.7,0,6.9c2,5.3,10.5,14.8,24.9,19.5c12.6,4.1,43.4,6.4,80.6-8c41.7-16.2,74.3-61,64.7-98.5
	c-9.7-38.2-73-50.7-132.8-29.4c-35.6,12.7-74.2,32.5-102,58.5c-33,30.8-38.2,57.7-36,68.9c7.7,39.9,62.6,65.8,84.6,85
	c-1.1,0.6-2.1,1.2-3,1.7c-11,5.4-52.9,27.3-63.4,50.5c-11.8,26.2,1.9,45.1,11,47.6c28.3,7.9,57.2-6.3,72.9-29.5
	c15.6-23.3,13.7-53.5,6.5-67.3l-0.3-0.5l8.6-5.1c5.6-3.3,11.1-6.3,15.9-9c-2.7,7.4-4.7,16.1-5.7,28.8c-1.2,14.9,4.9,34.2,12.9,41.8
	c3.6,3.3,7.8,3.4,10.4,3.4c9.3,0,13.5-7.7,18.2-16.9c5.8-11.3,10.8-24.3,10.8-24.3s-6.3,35.3,11,35.3c6.3,0,12.7-8.2,15.6-12.4v0.1
	c0,0,0.2-0.3,0.5-0.8c0.7-1,1-1.6,1-1.6v-0.2c2.5-4.4,8.2-14.5,16.7-31.1c10.9-21.5,21.4-48.4,21.4-48.4s1,6.6,4.1,17.4
	c1.9,6.4,5.9,13.5,9.1,20.3c-2.5,3.6-4.1,5.6-4.1,5.6l0.1,0.1c-2,2.7-4.3,5.6-6.7,8.5c-8.6,10.3-19,22.1-20.3,25.5
	c-1.6,4-1.3,6.9,1.9,9.3c2.3,1.7,6.3,2,10.7,1.7c7.8-0.5,13.2-2.5,15.9-3.6c4.2-1.5,9.1-3.8,13.7-7.2c8.5-6.3,13.6-15.1,13.1-27
	c-0.3-6.5-2.4-12.9-5-19c0.8-1.1,1.5-2.2,2.3-3.4c13.4-19.5,23.7-41,23.7-41s1,6.6,4.1,17.4c1.6,5.5,4.8,11.5,7.7,17.4
	c-12.5,10.2-20.4,22.1-23.1,29.9c-5,14.4-1.1,20.9,6.3,22.4c3.3,0.7,8-0.8,11.6-2.4c4.4-1.4,9.7-3.9,14.6-7.5
	c8.5-6.3,16.6-15,16.2-26.7c-0.3-5.4-1.7-10.7-3.6-15.8c10.7-4.4,24.5-6.9,42-4.8c37.7,4.4,45.1,27.9,43.7,37.7
	c-1.4,9.8-9.3,15.2-11.9,16.9c-2.6,1.6-3.5,2.2-3.2,3.4c0.3,1.8,1.5,1.7,3.8,1.4c3.1-0.5,19.8-8,20.5-26.1
	C-1584.6-748.1-1606.7-773.5-1645.8-773.2L-1645.8-773.2z M-1936.2-675.3c-12.4,13.6-30,18.8-37.4,14.4c-8-4.7-4.9-24.7,10.4-39.2
	c9.3-8.8,21.4-16.9,29.4-21.9c1.8-1.1,4.5-2.7,7.7-4.7c0.5-0.3,0.8-0.5,0.8-0.5c0.6-0.3,1.3-0.8,1.9-1.2
	C-1917.7-707.7-1923.1-689.6-1936.2-675.3L-1936.2-675.3z M-1845.3-737.2c-4.3,10.6-13.5,37.7-19,36.2c-4.7-1.3-7.6-21.8-0.9-42.1
	c3.4-10.2,10.6-22.4,14.8-27.2c6.9-7.6,14.3-10.2,16.2-7C-1832-773.2-1842.6-743.8-1845.3-737.2z M-1770.2-701.3
	c-1.9,0.9-3.6,1.6-4.3,1.1c-0.6-0.3,0.8-1.6,0.8-1.6s9.4-10.1,13.1-14.7c2.1-2.7,4.7-5.8,7.4-9.4v1
	C-1753.3-712.7-1765-704.6-1770.2-701.3z M-1712.3-714.5c-1.4-1-1.2-4.1,3.4-14c1.8-3.9,5.8-10.4,12.9-16.6c0.8,2.5,1.4,5,1.3,7.3
	C-1694.9-722.5-1705.7-716.9-1712.3-714.5z"/>
</svg>
