<svg xmlns="http://www.w3.org/2000/svg" width="163.3" height="196.1" viewBox="0 0 163.3 196.1">
  <style>
    .st0{fill:#FFFFFF;}
  </style>
  <path class="st0" d="M87.1 120.3s-.5.2-1.5.7c-1 .4-2.5 1.1-4.5 2-3.9 1.7-9.5 4.5-16.5 8.4-3.5 1.9-7.2 4.2-11.2 6.9-4 2.6-8.1 5.7-12.3 9.2C37 151 32.7 155 29 159.6c-1.8 2.3-3.4 4.9-4.5 7.6-.6 1.3-1 2.7-1.3 4.1-.3 1.3-.5 2.7-.5 3.8 0 1.2.1 2.1.4 2.8.2.7.6.9.7 1.1.2.1.4.3.9.6s1.3.6 2.4.9c2.1.6 5.2.7 8.3.1 1.6-.3 3.2-.8 4.7-1.5l.3-.1c-.3.1 0 0 0 0l.2-.1.7-.3.7-.3c.2-.1.3-.2.5-.3.3-.2.6-.3 1-.5l1-.6c5.5-3.3 10.1-9 12.5-15.8 2.4-6.7 2.4-14.7-.9-21.1-.4-.8-.8-1.6-1.3-2.3l-.3-.5-.5-.6-.4-.4-.4-.5c-1.2-1.3-2.6-2.6-4.2-3.9-3.1-2.5-6.7-4.8-10.4-7.1-7.4-4.6-15.5-9-23.2-15.5-3.8-3.2-7.5-7.1-10.4-12C2 92.4 0 86.2.1 80v-2.6l.1-.8v-.5l.1-.7c.1-.9.3-1.6.4-2.4.3-.6.4-1.4.6-2 .8-2.8 1.8-5.3 3-7.7 2.3-4.8 5.1-9.1 8.2-13.1 6.1-7.9 13.1-14.8 20.7-20.8S48.9 18.2 57.4 14C74.4 5.4 93 .5 111.2 0c2.3-.1 4.5-.1 6.8 0l1.6.1 1.8.1c1.2.1 2.3.2 3.4.3 4.5.5 9 1.3 13.5 2.6 4.4 1.4 8.8 3.3 12.8 6.1 3.9 2.8 7.4 6.6 9.6 11.1 2.2 4.5 3 9.4 2.7 14-.3 4.6-1.5 8.8-3.1 12.6-3.3 7.7-8.3 13.8-13.7 18.7-2.7 2.5-5.5 4.7-8.4 6.6-2.9 1.9-5.9 3.6-8.8 5-3 1.4-6 2.6-8.9 3.6-1.4.5-2.8.9-4.2 1.4-1.4.4-2.8.9-4.2 1.2-11 3-21.3 3.9-29.5 2.7-2.1-.3-4-.7-5.8-1.2-1.8-.5-3.5-1.1-4.9-1.7-3-1.3-5.3-2.8-7.1-4.2-1.8-1.4-2.9-2.7-3.7-3.6-1.1-.9-1.4-1.4-1.4-1.4-.3-.5-.2-1.1.3-1.4.5-.3 1.1-.2 1.4.3 0 0 .3.4 1 1.1.7.7 1.9 1.8 3.6 2.9 3.4 2.2 9.1 4.6 16.8 5 7.6.5 17-1.1 27.2-4.6 1.3-.4 2.6-.9 3.8-1.4 1.3-.5 2.6-1 4-1.6 2.7-1.1 5.2-2.3 7.8-3.8 5.1-2.9 10.2-6.6 14.6-11.2 4.4-4.5 8.3-10 10.5-16.1 2.2-6 2.5-12.7-.3-17.7-1.4-2.5-3.5-4.7-6.2-6.4-2.7-1.7-5.9-3-9.4-3.9-7-1.8-15-2-23-1.5-16 1-32.3 5.9-47.2 14-7.4 4.1-14.5 8.8-21.1 14.3C37 47.5 31 53.6 26.1 60.3c-2.4 3.3-4.5 6.8-6.1 10.3-.8 1.7-1.4 3.4-1.8 5l-.3 1.2c-.1.4-.2.8-.2 1v.5l-.1.9v-.1.9c0 2.9.8 5.7 2.3 8.7 1.5 3 3.8 6.1 6.4 9.1 5.3 6.1 12.1 11.7 18.9 17.4 3.4 2.9 6.9 5.7 10.4 8.9 1.7 1.6 3.4 3.3 5 5.3l.6.8.6.9.4.7.2.3.1.2.2.4c.7 1.1 1.3 2.2 1.8 3.3 2.1 4.5 3.2 9.4 3.4 14.2.1 2.4 0 4.8-.3 7.1s-.7 4.6-1.4 6.9c-2.4 9-7.7 17.1-15.1 22.7l-1.4 1c-.5.3-1 .7-1.6 1-.3.2-.6.4-.8.5l-.6.4-.6.4-.2.1c-.1.1.1 0-.3.2l-.4.2c-1.9 1-3.9 1.9-6 2.7-4.1 1.7-8.6 3.1-13.8 3-2.6-.1-5.4-.6-8.2-1.9-2.7-1.3-5.4-3.5-7.2-6.4-1.8-2.8-2.5-6.1-2.6-8.9 0-2.8.6-5.3 1.4-7.5 1.7-4.3 4.2-7.5 6.6-10.2 2.5-2.7 5-5.1 7.5-7.3 4.8-4.5 9.8-8.1 14.6-11.2 4.7-3.1 9.3-5.8 13.6-8.1 4.3-2.3 8.3-4.3 11.9-6 7.3-3.5 13.1-5.9 17-7.6 3.9-1.7 6.1-2.6 6.1-2.6.5-.2 1.1 0 1.3.5s.2.9-.3 1.1z"/>
</svg>
